<?xml version="1.0" encoding="UTF-8" standalone="no"?>
<!-- Created with Inkscape (http://www.inkscape.org/) -->

<svg
   width="8.4654932mm"
   height="7.6729374mm"
   viewBox="0 0 8.4654932 7.6729374"
   version="1.1"
   id="svg413"
   inkscape:version="1.2.2 (732a01da63, 2022-12-09)"
   sodipodi:docname="busket.svg"
   xmlns:inkscape="http://www.inkscape.org/namespaces/inkscape"
   xmlns:sodipodi="http://sodipodi.sourceforge.net/DTD/sodipodi-0.dtd"
   xmlns="http://www.w3.org/2000/svg"
   xmlns:svg="http://www.w3.org/2000/svg">
  <sodipodi:namedview
     id="namedview415"
     pagecolor="#ffffff"
     bordercolor="#000000"
     borderopacity="0.25"
     inkscape:showpageshadow="2"
     inkscape:pageopacity="0.0"
     inkscape:pagecheckerboard="0"
     inkscape:deskcolor="#d1d1d1"
     inkscape:document-units="mm"
     showgrid="false"
     inkscape:zoom="0.74564394"
     inkscape:cx="109.97206"
     inkscape:cy="195.80391"
     inkscape:window-width="1920"
     inkscape:window-height="1017"
     inkscape:window-x="-8"
     inkscape:window-y="-8"
     inkscape:window-maximized="1"
     inkscape:current-layer="layer1" />
  <defs
     id="defs410" />
  <g
     inkscape:label="Слой 1"
     inkscape:groupmode="layer"
     id="layer1"
     transform="translate(-75.960803,-96.937712)">
    <path
       d="m 82.893155,104.61065 c -0.17145,-0.007 -0.333111,-0.0808 -0.45085,-0.20566 -0.117475,-0.12491 -0.181504,-0.29091 -0.178065,-0.46241 0.0037,-0.17148 0.07408,-0.33478 0.196586,-0.45485 0.122502,-0.12004 0.287337,-0.1873 0.458787,-0.1873 0.17145,0 0.336285,0.0673 0.458788,0.1873 0.122502,0.12007 0.192881,0.28337 0.19632,0.45485 0.0037,0.1715 -0.06032,0.3375 -0.1778,0.46241 -0.117739,0.12491 -0.2794,0.19873 -0.45085,0.20566 z m -5.145617,-0.70908 c 0,-0.14023 0.04154,-0.27734 0.119592,-0.39394 0.07779,-0.1166 0.188648,-0.20749 0.318029,-0.26117 0.129646,-0.0537 0.272256,-0.0677 0.40984,-0.0404 0.137583,0.0274 0.263789,0.0949 0.363008,0.19407 0.09922,0.0992 0.166687,0.22551 0.194204,0.36306 0.02725,0.13753 0.01323,0.28012 -0.04048,0.40968 -0.05371,0.12957 -0.144463,0.24033 -0.261144,0.31822 -0.116681,0.0779 -0.253735,0.11951 -0.393965,0.11951 -0.09313,8e-5 -0.185472,-0.0182 -0.271462,-0.0538 -0.08625,-0.0356 -0.164306,-0.0878 -0.230188,-0.15367 -0.06588,-0.0659 -0.118268,-0.14407 -0.153987,-0.23011 -0.03572,-0.0861 -0.05397,-0.17833 -0.05397,-0.27149 z m 1.005417,-1.49066 c -0.06853,2.1e-4 -0.135467,-0.0221 -0.190236,-0.0636 -0.05477,-0.0414 -0.09419,-0.0997 -0.112712,-0.16582 l -1.278731,-4.618297 h -0.897732 c -0.08281,0 -0.162454,-0.03295 -0.221191,-0.0916 -0.05847,-0.05865 -0.09155,-0.138197 -0.09155,-0.221139 0,-0.08294 0.03307,-0.16249 0.09155,-0.22114 0.05874,-0.05865 0.138377,-0.0916 0.221191,-0.0916 h 1.132682 c 0.06879,-2.16e-4 0.135466,0.02215 0.190235,0.06365 0.0545,0.0415 0.09419,0.09983 0.112448,0.16601 l 1.278731,4.618306 h 3.486679 l 1.159669,-2.658536 h -3.862917 c -0.0418,0.0012 -0.08361,-0.006 -0.122502,-0.02115 -0.03916,-0.01518 -0.07461,-0.03803 -0.104775,-0.0672 -0.0299,-0.02917 -0.05371,-0.06407 -0.07011,-0.102639 -0.0164,-0.03857 -0.02461,-0.08001 -0.02461,-0.121881 0,-0.04187 0.0082,-0.08331 0.02461,-0.121877 0.0164,-0.03857 0.04022,-0.07347 0.07011,-0.10264 0.03016,-0.02917 0.06562,-0.05203 0.104775,-0.0672 0.03889,-0.01517 0.0807,-0.02236 0.122502,-0.02115 h 4.342607 c 0.05186,-1.3e-5 0.102658,0.01287 0.148166,0.03749 0.04577,0.02462 0.0844,0.0602 0.112713,0.103529 0.02858,0.04347 0.04577,0.09331 0.05054,0.145108 0.0045,0.05179 -0.0037,0.103926 -0.02408,0.151752 l -1.430073,3.284014 c -0.02434,0.0557 -0.06456,0.10313 -0.115623,0.13644 -0.0508,0.0333 -0.110331,0.0511 -0.171185,0.0512 z"
       fill="#e8e8e8"
       id="path89"
       style="stroke-width:0.264583" />
  </g>
</svg>
