<?xml version="1.0" encoding="UTF-8" standalone="no"?>
<!-- Created with Inkscape (http://www.inkscape.org/) -->

<svg
   width="7.6729169mm"
   height="7.672925mm"
   viewBox="0 0 7.6729169 7.672925"
   version="1.1"
   id="svg324"
   inkscape:version="1.2.2 (732a01da63, 2022-12-09)"
   sodipodi:docname="person.svg"
   xmlns:inkscape="http://www.inkscape.org/namespaces/inkscape"
   xmlns:sodipodi="http://sodipodi.sourceforge.net/DTD/sodipodi-0.dtd"
   xmlns="http://www.w3.org/2000/svg"
   xmlns:svg="http://www.w3.org/2000/svg">
  <sodipodi:namedview
     id="namedview326"
     pagecolor="#ffffff"
     bordercolor="#000000"
     borderopacity="0.25"
     inkscape:showpageshadow="2"
     inkscape:pageopacity="0.0"
     inkscape:pagecheckerboard="0"
     inkscape:deskcolor="#d1d1d1"
     inkscape:document-units="mm"
     showgrid="false"
     inkscape:zoom="0.74564394"
     inkscape:cx="186.41605"
     inkscape:cy="227.99086"
     inkscape:window-width="1920"
     inkscape:window-height="1017"
     inkscape:window-x="-8"
     inkscape:window-y="-8"
     inkscape:window-maximized="1"
     inkscape:current-layer="layer1" />
  <defs
     id="defs321" />
  <g
     inkscape:label="Слой 1"
     inkscape:groupmode="layer"
     id="layer1"
     transform="translate(-55.776442,-88.421606)">
    <path
       d="m 59.612903,93.696604 c 1.190625,0 2.157941,-1.183481 2.157941,-2.637631 0,-1.45415 -0.967316,-2.637367 -2.157941,-2.637367 -0.300805,0.0058 -0.596292,0.08027 -0.863838,0.217857 -0.267547,0.137582 -0.500063,0.334577 -0.679741,0.575893 -0.4073,0.528037 -0.623835,1.178404 -0.614363,1.845204 0,1.452827 0.967317,2.636044 2.157942,2.636044 z m 0,-4.795308 c 0.926041,0 1.678516,0.96811 1.678516,2.157941 0,1.189831 -0.753004,2.157942 -1.678516,2.157942 -0.925513,0 -1.678517,-0.968375 -1.678781,-2.157942 -2.65e-4,-1.189566 0.752739,-2.157941 1.678781,-2.157941 z m 1.678516,4.315883 c -0.0636,0 -0.124618,0.02527 -0.169598,0.07025 -0.04498,0.04498 -0.07025,0.105992 -0.07025,0.169598 0,0.0636 0.02527,0.124618 0.07025,0.169598 0.04498,0.04498 0.105993,0.07025 0.169598,0.07025 0.44503,5.03e-4 0.871697,0.177483 1.186366,0.492178 0.314669,0.314669 0.491648,0.74131 0.492151,1.186339 -1.32e-4,0.06353 -0.02545,0.124434 -0.07038,0.16936 -0.04493,0.0449 -0.105807,0.07022 -0.169333,0.07035 H 56.49611 c -0.06355,-1.33e-4 -0.124433,-0.02545 -0.169333,-0.07035 -0.04493,-0.04493 -0.07025,-0.105833 -0.07038,-0.16936 5.55e-4,-0.445003 0.177588,-0.871617 0.49223,-1.186259 0.314669,-0.314669 0.741284,-0.491702 1.186286,-0.492258 0.06355,0 0.12454,-0.02527 0.169492,-0.07022 0.04495,-0.04495 0.07022,-0.105913 0.07022,-0.169492 0,-0.06358 -0.02527,-0.124539 -0.07022,-0.169492 -0.04495,-0.04495 -0.105939,-0.07022 -0.169492,-0.07022 -0.572188,5.03e-4 -1.120775,0.227939 -1.525428,0.63246 -0.404681,0.404522 -0.632355,0.953056 -0.633043,1.525217 2.12e-4,0.190739 0.07607,0.373592 0.210926,0.50845 0.134885,0.134885 0.317738,0.210741 0.508477,0.210953 h 6.234377 c 0.190685,-2.91e-4 0.373485,-0.07617 0.508291,-0.211032 0.134805,-0.134858 0.210634,-0.317685 0.210846,-0.508371 -6.88e-4,-0.572108 -0.228282,-1.120589 -0.632804,-1.525111 -0.404548,-0.404548 -0.953029,-0.632142 -1.525138,-0.63283 z"
       fill="#e8e8e8"
       id="path87"
       style="stroke-width:0.264583" />
  </g>
</svg>
