<svg width="71" height="70" viewBox="0 0 71 70" fill="none" xmlns="http://www.w3.org/2000/svg">
<rect x="0.634521" y="0.289185" width="70.1097" height="69.1446" rx="15" fill="#F25822" fill-opacity="0.25"/>
<path d="M24.4496 25.752V44.9588H46.7066V25.752H24.4496ZM23.0585 23.0081H48.0977C48.4666 23.0081 48.8205 23.1527 49.0813 23.4099C49.3422 23.6672 49.4888 24.0162 49.4888 24.38V46.3307C49.4888 46.6946 49.3422 47.0435 49.0813 47.3008C48.8205 47.5581 48.4666 47.7026 48.0977 47.7026H23.0585C22.6896 47.7026 22.3358 47.5581 22.0749 47.3008C21.814 47.0435 21.6675 46.6946 21.6675 46.3307V24.38C21.6675 24.0162 21.814 23.6672 22.0749 23.4099C22.3358 23.1527 22.6896 23.0081 23.0585 23.0081V23.0081ZM39.4634 32.3275L36.9692 29.8677H43.9245V36.7273L41.4303 34.2674L36.0553 39.5685L33.1048 36.6587L29.1695 40.5385L27.2025 38.5986L33.1048 32.7775L36.0553 35.6887L39.4634 32.3275Z" fill="#F25822"/>
</svg>
