<svg width="71" height="70" viewBox="0 0 71 70" fill="none" xmlns="http://www.w3.org/2000/svg">
<rect x="0.260986" y="0.289185" width="70.1097" height="69.1446" rx="15" fill="#149211" fill-opacity="0.28"/>
<path d="M34.8882 46.6737C34.7672 46.6736 34.6472 46.6527 34.5335 46.612C34.3141 46.5328 34.128 46.3832 34.0051 46.1874C33.8821 45.9915 33.8294 45.7606 33.8553 45.5316L34.6587 38.2364H28.5136C28.3241 38.2367 28.1381 38.1861 27.9755 38.0899C27.813 37.9938 27.68 37.8558 27.591 37.6908C27.502 37.5258 27.4602 37.3399 27.4702 37.1533C27.4802 36.9666 27.5415 36.7861 27.6477 36.6313L35.8793 24.4898C36.0095 24.2998 36.2003 24.1581 36.4215 24.0873C36.6426 24.0165 36.8814 24.0205 37.1 24.0988C37.3101 24.1757 37.4895 24.3174 37.6116 24.5027C37.7337 24.688 37.7921 24.9072 37.7781 25.1278L36.9748 32.4744H43.1198C43.3093 32.4741 43.4954 32.5247 43.6579 32.6209C43.8205 32.717 43.9534 32.855 44.0424 33.02C44.1314 33.185 44.1732 33.3709 44.1632 33.5575C44.1532 33.7442 44.0919 33.9247 43.9857 34.0795L35.7541 46.221C35.6584 46.3606 35.5294 46.4749 35.3784 46.5539C35.2274 46.6328 35.0591 46.674 34.8882 46.6737V46.6737ZM30.4646 36.1785H35.8167C35.9623 36.1789 36.1062 36.2093 36.2392 36.2678C36.3721 36.3262 36.4912 36.4115 36.5888 36.5181C36.6872 36.6261 36.7614 36.7535 36.8063 36.8918C36.8513 37.0302 36.866 37.1763 36.8496 37.3207L36.3801 41.5908L41.1688 34.5322H35.8167C35.6695 34.5331 35.5237 34.5033 35.3891 34.4446C35.2544 34.386 35.1338 34.2999 35.0352 34.192C34.9367 34.0842 34.8624 33.9569 34.8173 33.8187C34.7722 33.6805 34.7572 33.5344 34.7734 33.3901L35.2429 29.12L30.4646 36.1785Z" fill="#149211"/>
</svg>
