<svg width="71" height="70" viewBox="0 0 71 70" fill="none" xmlns="http://www.w3.org/2000/svg">
<rect x="0.887695" y="0.289185" width="70.1097" height="69.1446" rx="15" fill="#FFCD1D" fill-opacity="0.24"/>
<path d="M37.351 45.6448C36.8472 45.6442 36.3638 45.4483 36.0051 45.0994L29.3176 38.4937C29.146 38.3254 29.039 38.1035 29.015 37.866L28.0969 28.2454C28.0829 28.0947 28.1027 27.9428 28.155 27.8005C28.2073 27.6583 28.2908 27.5291 28.3995 27.4223C28.5078 27.3151 28.6387 27.2327 28.783 27.1812C28.9273 27.1296 29.0813 27.11 29.2341 27.1239L38.9889 28.0294C39.2298 28.053 39.4547 28.1585 39.6254 28.3277L46.3233 34.9232C46.6782 35.2743 46.8775 35.7497 46.8775 36.2454C46.8775 36.7411 46.6782 37.2166 46.3233 37.5676L38.6864 45.0994C38.3316 45.4477 37.8516 45.6437 37.351 45.6448V45.6448ZM31.0912 37.3001L37.351 43.4737L44.7062 36.2197L38.4464 30.0461L30.2983 29.295L31.0912 37.3001Z" fill="#FFC700"/>
<path d="M34.8782 35.3554C35.7425 35.3554 36.4431 34.6644 36.4431 33.812C36.4431 32.9596 35.7425 32.2686 34.8782 32.2686C34.0139 32.2686 33.3132 32.9596 33.3132 33.812C33.3132 34.6644 34.0139 35.3554 34.8782 35.3554Z" fill="#FFC700"/>
</svg>
